<?xml version="1.0" encoding="utf-8"?>
<!-- Generator: Adobe Illustrator 19.0.1, SVG Export Plug-In . SVG Version: 6.00 Build 0)  -->
<svg version="1.1" id="Layer_1" xmlns="http://www.w3.org/2000/svg" xmlns:xlink="http://www.w3.org/1999/xlink" x="0px" y="0px"
	 viewBox="0 0 118.5 115.7" style="enable-background:new 0 0 118.5 115.7;" xml:space="preserve">
<style type="text/css">
	.st0{clip-path:url(#XMLID_2_);fill:#DEE5E4;}
	.st1{clip-path:url(#XMLID_2_);fill:#C9CECE;}
	.st2{fill:#FFFFFF;}
	.st3{fill:#EF4C54;}
	.st4{fill:#E5344E;}
	.st5{filter:url(#Adobe_OpacityMaskFilter);}
	.st6{filter:url(#Adobe_OpacityMaskFilter_1_);}
	.st7{mask:url(#XMLID_3_);fill:url(#XMLID_4_);}
	.st8{fill:#6D1B2A;}
	.st9{fill:#16B1DE;}
	.st10{filter:url(#Adobe_OpacityMaskFilter_2_);}
	.st11{filter:url(#Adobe_OpacityMaskFilter_3_);}
	.st12{mask:url(#XMLID_5_);fill:url(#XMLID_6_);}
	.st13{fill:#118DB2;}
	.st14{fill:#DF3D88;}
	.st15{fill:#B2306B;}
	.st16{fill:#CCCBCB;}
	.st17{fill:#46C3DA;}
	.st18{fill:#27ACCE;}
	.st19{fill:#00A58C;}
	.st20{fill:#BB826E;}
	.st21{fill:#4D4E4E;}
	.st22{fill:#565759;}
	.st23{fill:#444446;}
	.st24{fill:#F9C31A;}
	.st25{fill:#E4AC23;}
	.st26{clip-path:url(#XMLID_7_);fill:#C5E7E9;}
	.st27{clip-path:url(#XMLID_7_);fill:#9CC1C3;}
	.st28{fill:#005C89;}
	.st29{fill:#89A3A3;}
	.st30{fill:#728D8D;}
	.st31{fill:#F4F6F6;}
	.st32{fill:#046F99;}
	.st33{fill:#F16355;}
	.st34{filter:url(#Adobe_OpacityMaskFilter_4_);}
	.st35{filter:url(#Adobe_OpacityMaskFilter_5_);}
	.st36{mask:url(#XMLID_8_);fill:url(#XMLID_9_);}
	.st37{fill:url(#XMLID_10_);}
</style>
<g>
	<ellipse id="XMLID_1177_" class="st14" cx="61.3" cy="57.6" rx="55.7" ry="56.1"/>
	<path id="XMLID_1176_" class="st15" d="M117.2,58.8c-9.2-5.9-18.4-11.9-27.7-17.8c-2.2,1.5-4.4,3.1-6.7,4.6
		C74.8,61.8,66.8,78,58.7,94.3c7.4,5.2,14.7,10.5,22.1,15.7c5.1-1.9,13.3-5.7,20.8-13.5C115.5,81.9,117,64,117.2,58.8z"/>
	<path id="XMLID_1150_" class="st2" d="M64.1,27.3c0,1.4-1.2,2.6-2.6,2.6l0,0c-1.4,0-2.6-1.2-2.6-2.6v-7.1c0-1.4,1.2-2.6,2.6-2.6
		l0,0c1.4,0,2.6,1.2,2.6,2.6V27.3z"/>
	<path id="XMLID_1149_" class="st2" d="M85.6,62.3c-1.4-0.1-2.5-1.3-2.5-2.7l0,0c0.1-1.4,1.3-2.6,2.7-2.5l7.1,0.3
		c1.4,0.1,2.6,1.3,2.5,2.7l0,0c-0.1,1.4-1.3,2.6-2.7,2.5L85.6,62.3z"/>
	<path id="XMLID_1148_" class="st2" d="M42.5,32.6c0.7,1.2,2.3,1.6,3.6,0.9l0,0c1.2-0.7,1.6-2.4,0.9-3.6l-3.6-6.1
		c-0.7-1.2-2.3-1.6-3.6-0.9l0,0c-1.2,0.7-1.6,2.4-0.9,3.6L42.5,32.6z"/>
	<path id="XMLID_1147_" class="st2" d="M35.4,47.9c1.3,0.7,2.8,0.2,3.5-1.1l0,0c0.7-1.3,0.2-2.9-1.1-3.6l-6.2-3.4
		c-1.3-0.7-2.8-0.2-3.5,1.1l0,0c-0.7,1.3-0.2,2.9,1.1,3.6L35.4,47.9z"/>
	<path id="XMLID_1146_" class="st2" d="M37,62.3c1.4-0.1,2.5-1.3,2.5-2.7l0,0c-0.1-1.4-1.3-2.6-2.7-2.5l-7.1,0.3
		c-1.4,0.1-2.6,1.3-2.5,2.7l0,0c0.1,1.4,1.3,2.6,2.7,2.5L37,62.3z"/>
	<path id="XMLID_1145_" class="st2" d="M78.5,33.1c-0.7,1.2-2.3,1.6-3.6,0.9l0,0c-1.2-0.7-1.6-2.4-0.9-3.6l3.6-6.1
		c0.7-1.2,2.3-1.6,3.6-0.9l0,0c1.2,0.7,1.6,2.4,0.9,3.6L78.5,33.1z"/>
	<path id="XMLID_1142_" class="st2" d="M72.7,38.2c-9.9-8-19.9-2.4-19.9-2.4c-9.9,5.6-9.4,14.5-9.4,14.5c-0.3,6.1,2.9,12.1,5.6,16.3
		c2.6,4.3,2.2,6.5,2.6,8.4c0.3,1.4,1.4,3,1.9,3.8l0.1,3.4c0,0,0.5,0.2,0.6,0.7c0,0,0.1,0.3-0.1,0.5c-0.2,0.2-0.7,0.2-0.8,0.6
		c0,0.4,0.7,0.7,0.7,0.7s0.7,0.4,0.1,0.8c-0.6,0.3-0.8,0.4-0.8,0.8c0,0.4,0.6,0.5,0.6,0.8c0,0.3-0.6,0.9-0.6,1.3
		c0,0.4,0.7,0.6,0.7,0.9s0,1,0.2,1.2c0.3,0.2,4,3.7,4.2,3.9c0.3,0.2,4.8,0.2,5,0.2c0.2-0.1,5-4.8,5.1-5.1c0.2-0.3-0.3-0.6-0.5-0.6
		c-0.1,0-0.2-0.4,0-0.6c0.2-0.2,0.6-0.5,0.6-0.8c0-0.3-0.7-0.8-0.7-1.1c0-0.3,0.7-0.7,0.7-1.1c0-0.3-0.7-0.7-0.7-1.1
		c0-0.4,0.7-0.7,0.7-1c0-0.3-0.6-0.7-0.6-1.1c0-0.4,0.5-0.6,0.6-1.1c0.1-0.5-0.6-0.8-0.4-1.9c0.6-0.7,1.3-1.6,1.7-2.2
		c0.7-1,0.7-4.4,1-5.8c0.3-1.4,4.1-8.4,4.1-8.4c3.5-4.9,3.3-10.8,3.3-10.8C78.9,43.6,72.7,38.2,72.7,38.2z M74,58.3
		c0,0-1.8,4.3-2.6,5.5c0,0-2.1,4.4-2.5,5.6c0,0-0.2,1.3-0.2,2.3c0,1-0.8,2.9-1.5,3.2c-0.7,0.3-1.2,0.1-1.2,0.1s-9.6,0.2-9.9-0.1
		c0,0-1.4,0.4-1.9-1.1c0,0-0.8-1.3-0.8-2.8c0,0,0-1.5-0.7-3.1c-0.7-1.6-4.8-8.3-5-10c0,0-1.8-5.8-0.2-9.3c1.6-3.5,4.3-7.6,9.9-8.8
		c0,0,6.5-2.2,12.8,2.8c0,0,3.7,3.4,4.5,6.8C74.5,49.7,75.6,55.3,74,58.3z"/>
	<path id="XMLID_1141_" class="st2" d="M85.1,47.9c-1.3,0.7-2.8,0.2-3.5-1.1l0,0c-0.7-1.3-0.2-2.9,1.1-3.6l6.2-3.4
		c1.3-0.7,2.8-0.2,3.5,1.1l0,0c0.7,1.3,0.2,2.9-1.1,3.6L85.1,47.9z"/>
</g>
</svg>
