<?xml version="1.0" encoding="utf-8"?>
<!-- Generator: Adobe Illustrator 19.0.1, SVG Export Plug-In . SVG Version: 6.00 Build 0)  -->
<svg version="1.1" id="Layer_1" xmlns="http://www.w3.org/2000/svg" xmlns:xlink="http://www.w3.org/1999/xlink" x="0px" y="0px"
	 viewBox="0 0 118.5 115.7" style="enable-background:new 0 0 118.5 115.7;" xml:space="preserve">
<style type="text/css">
	.st0{clip-path:url(#XMLID_2_);fill:#DEE5E4;}
	.st1{clip-path:url(#XMLID_2_);fill:#C9CECE;}
	.st2{fill:#FFFFFF;}
	.st3{fill:#EF4C54;}
	.st4{fill:#E5344E;}
	.st5{filter:url(#Adobe_OpacityMaskFilter);}
	.st6{filter:url(#Adobe_OpacityMaskFilter_1_);}
	.st7{mask:url(#XMLID_3_);fill:url(#XMLID_4_);}
	.st8{fill:#6D1B2A;}
	.st9{fill:#16B1DE;}
	.st10{filter:url(#Adobe_OpacityMaskFilter_2_);}
	.st11{filter:url(#Adobe_OpacityMaskFilter_3_);}
	.st12{mask:url(#XMLID_5_);fill:url(#XMLID_6_);}
	.st13{fill:#118DB2;}
	.st14{fill:#DF3D88;}
	.st15{fill:#B2306B;}
	.st16{fill:#CCCBCB;}
	.st17{fill:#46C3DA;}
	.st18{fill:#27ACCE;}
	.st19{fill:#00A58C;}
	.st20{fill:#00826E;}
	.st21{fill:#4D4E4E;}
	.st22{fill:#565759;}
	.st23{fill:#444446;}
	.st24{fill:#F9C31A;}
	.st25{fill:#E4AC23;}
	.st26{clip-path:url(#XMLID_7_);fill:#C5E7E9;}
	.st27{clip-path:url(#XMLID_7_);fill:#9CC1C3;}
	.st28{fill:#005C89;}
	.st29{fill:#89A3A3;}
	.st30{fill:#728D8D;}
	.st31{fill:#F4F6F6;}
	.st32{fill:#046F99;}
	.st33{fill:#F16355;}
	.st34{filter:url(#Adobe_OpacityMaskFilter_4_);}
	.st35{filter:url(#Adobe_OpacityMaskFilter_5_);}
	.st36{mask:url(#XMLID_8_);fill:url(#XMLID_9_);}
	.st37{fill:url(#XMLID_10_);}
</style>
<g id="XMLID_1160_">
	<circle id="XMLID_1175_" class="st4" cx="60.6" cy="57.6" r="56.1"/>
	<defs>
		<filter id="Adobe_OpacityMaskFilter" filterUnits="userSpaceOnUse" x="32.6" y="29.6" width="82.8" height="84.1">
			<feFlood  style="flood-color:white;flood-opacity:1" result="back"/>
			<feBlend  in="SourceGraphic" in2="back" mode="normal"/>
		</filter>
	</defs>
	<mask maskUnits="userSpaceOnUse" x="32.6" y="29.6" width="82.8" height="84.1" id="XMLID_2_">
		<g id="XMLID_152_" class="st5">
			<defs>
				<filter id="Adobe_OpacityMaskFilter_1_" filterUnits="userSpaceOnUse" x="32.6" y="29.6" width="82.8" height="84.1">
					<feFlood  style="flood-color:white;flood-opacity:1" result="back"/>
					<feBlend  in="SourceGraphic" in2="back" mode="normal"/>
				</filter>
			</defs>
			<mask maskUnits="userSpaceOnUse" x="32.6" y="29.6" width="82.8" height="84.1" id="XMLID_2_">
			</mask>
			<linearGradient id="XMLID_3_" gradientUnits="userSpaceOnUse" x1="36.1947" y1="39.2657" x2="97.2148" y2="100.2857">
				<stop  offset="0.4" style="stop-color:#333333"/>
				<stop  offset="0.6057" style="stop-color:#2A2A2A"/>
				<stop  offset="0.9402" style="stop-color:#121212"/>
				<stop  offset="1" style="stop-color:#0D0D0D"/>
			</linearGradient>
			<path id="XMLID_153_" style="mask:url(#XMLID_2_);fill:url(#XMLID_3_);" d="M88.3,42.4c-0.2-0.2-0.4-0.3-0.6-0.4L61.4,29.7
				c-0.5-0.2-1-0.2-1.5,0L33.6,42c-0.7,0.3-1.1,1.2-1,2c0.1,0.4,0.3,0.7,0.6,1l2.1,2.1h-1c-1,0-1.8,0.8-1.8,1.8c0,0.5,0.2,1,0.6,1.3
				l2.9,2.9v23.8h-1.8c-1,0-1.8,0.8-1.8,1.8c0,0.5,0.2,1,0.6,1.3l2.2,2.2h-1c-1,0-1.8,0.8-1.8,1.8c0,0.5,0.2,0.9,0.5,1.2l28.5,28.5
				c26.4-0.5,48.3-19.2,53.8-44L88.3,42.4z"/>
		</g>
	</mask>
	<path id="XMLID_1174_" class="st8" d="M88.3,42.4c-0.2-0.2-0.4-0.3-0.6-0.4L61.4,29.7c-0.5-0.2-1-0.2-1.5,0L33.6,42
		c-0.7,0.3-1.1,1.2-1,2c0.1,0.4,0.3,0.7,0.6,1l2.1,2.1h-1c-1,0-1.8,0.8-1.8,1.8c0,0.5,0.2,1,0.6,1.3l2.9,2.9v23.8h-1.8
		c-1,0-1.8,0.8-1.8,1.8c0,0.5,0.2,1,0.6,1.3l2.2,2.2h-1c-1,0-1.8,0.8-1.8,1.8c0,0.5,0.2,0.9,0.5,1.2l28.5,28.5
		c26.4-0.5,48.3-19.2,53.8-44L88.3,42.4z"/>
	<g id="XMLID_1161_">
		<path id="XMLID_1170_" class="st2" d="M34.4,45.3h52.6c0.8,0,1.5-0.6,1.7-1.4c0.2-0.8-0.2-1.6-1-2L61.4,29.7c-0.5-0.2-1-0.2-1.5,0
			L33.6,42c-0.7,0.3-1.1,1.2-1,2C32.8,44.8,33.5,45.3,34.4,45.3z"/>
		<path id="XMLID_1169_" class="st2" d="M86.9,82.1H34.4c-1,0-1.8,0.8-1.8,1.8c0,1,0.8,1.8,1.8,1.8h52.6c1,0,1.8-0.8,1.8-1.8
			C88.7,82.9,87.9,82.1,86.9,82.1z"/>
		<path id="XMLID_1162_" class="st2" d="M86.9,76.9h-1.8V50.6h1.8c1,0,1.8-0.8,1.8-1.8c0-1-0.8-1.8-1.8-1.8H34.4
			c-1,0-1.8,0.8-1.8,1.8c0,1,0.8,1.8,1.8,1.8h1.8v26.3h-1.8c-1,0-1.8,0.8-1.8,1.8c0,1,0.8,1.8,1.8,1.8h52.6c1,0,1.8-0.8,1.8-1.8
			C88.7,77.6,87.9,76.9,86.9,76.9z M39.6,76.9V50.6h3.5v26.3H39.6z M46.6,76.9V50.6h3.5v26.3H46.6z M53.6,76.9V50.6h14v26.3H53.6z
			 M71.2,76.9V50.6h3.5v26.3H71.2z M78.2,76.9V50.6h3.5v26.3H78.2z"/>
	</g>
</g>
</svg>
