<?xml version="1.0" encoding="utf-8"?>
<!-- Generator: Adobe Illustrator 19.0.1, SVG Export Plug-In . SVG Version: 6.00 Build 0)  -->
<svg version="1.1" id="Layer_1" xmlns="http://www.w3.org/2000/svg" xmlns:xlink="http://www.w3.org/1999/xlink" x="0px" y="0px"
	 viewBox="0 0 118.5 115.7" style="enable-background:new 0 0 118.5 115.7;" xml:space="preserve">
<style type="text/css">
	.st0{clip-path:url(#XMLID_2_);fill:#DEE5E4;}
	.st1{clip-path:url(#XMLID_2_);fill:#C9CECE;}
	.st2{fill:#FFFFFF;}
	.st3{fill:#EF4C54;}
	.st4{fill:#E5344E;}
	.st5{filter:url(#Adobe_OpacityMaskFilter);}
	.st6{filter:url(#Adobe_OpacityMaskFilter_1_);}
	.st7{mask:url(#XMLID_3_);fill:url(#XMLID_4_);}
	.st8{fill:#6D1B2A;}
	.st9{fill:#16B1DE;}
	.st10{filter:url(#Adobe_OpacityMaskFilter_2_);}
	.st11{filter:url(#Adobe_OpacityMaskFilter_3_);}
	.st12{mask:url(#XMLID_5_);fill:url(#XMLID_6_);}
	.st13{fill:#118DB2;}
	.st14{fill:#DF3D88;}
	.st15{fill:#B2306B;}
	.st16{fill:#CCCBCB;}
	.st17{fill:#46C3DA;}
	.st18{fill:#27ACCE;}
	.st19{fill:#00A58C;}
	.st20{fill:#00826E;}
	.st21{fill:#4D4E4E;}
	.st22{fill:#565759;}
	.st23{fill:#444446;}
	.st24{fill:#F9C31A;}
	.st25{fill:#E4AC23;}
	.st26{clip-path:url(#XMLID_7_);fill:#C5E7E9;}
	.st27{clip-path:url(#XMLID_7_);fill:#9CC1C3;}
	.st28{fill:#005C89;}
	.st29{fill:#89A3A3;}
	.st30{fill:#728D8D;}
	.st31{fill:#F4F6F6;}
	.st32{fill:#046F99;}
	.st33{fill:#F16355;}
	.st34{filter:url(#Adobe_OpacityMaskFilter_4_);}
	.st35{filter:url(#Adobe_OpacityMaskFilter_5_);}
	.st36{mask:url(#XMLID_8_);fill:url(#XMLID_9_);}
	.st37{fill:url(#XMLID_10_);}
</style>
<g id="XMLID_1091_">
	<circle id="XMLID_1102_" class="st19" cx="59.1" cy="58.2" r="55.7"/>
	<path id="XMLID_1101_" class="st20" d="M113.9,68.1L82.2,36.4L83,79l-55.4-0.2l35,35C88.4,112.2,109.4,93,113.9,68.1z"/>
	<g id="XMLID_1097_">
		<path id="XMLID_1098_" class="st2" d="M79.6,66.9H39.3c-1.9,0-3.4-1.5-3.4-3.4V38.6c0-1.9,1.5-3.4,3.4-3.4h40.3
			c1.9,0,3.4,1.5,3.4,3.4v24.9C83,65.4,81.5,66.9,79.6,66.9z M38.4,64.2h42V38.6l-42,0L38.4,64.2z"/>
	</g>
	<g id="XMLID_1094_">
		<path id="XMLID_1095_" class="st2" d="M89.2,79.4H29.4c-1.5,0-2.1-0.8-2.3-1.2c-0.2-0.4-0.5-1.3,0.5-2.5l7.2-8.8
			c1-1.2,2.9-2.1,4.5-2.1h40.4c1.6,0,3.5,0.9,4.5,2.1l6.9,8.7c0.9,1.2,0.6,2.2,0.5,2.5C91.4,78.5,90.8,79.4,89.2,79.4z"/>
	</g>
	<g id="XMLID_1092_">
		<path id="XMLID_1093_" class="st21" d="M80.6,71.7c0.4,0.6,0.2,1.2-0.5,1.2H38.5c-0.7,0-0.9-0.5-0.4-1.1l1.8-2.1
			c0.5-0.6,1.5-1,2.2-1H77c0.7,0,1.7,0.5,2.1,1.1L80.6,71.7z"/>
	</g>
</g>
</svg>
