<?xml version="1.0" encoding="utf-8"?>
<!-- Generator: Adobe Illustrator 19.0.1, SVG Export Plug-In . SVG Version: 6.00 Build 0)  -->
<svg version="1.1" id="Layer_1" xmlns="http://www.w3.org/2000/svg" xmlns:xlink="http://www.w3.org/1999/xlink" x="0px" y="0px"
	 viewBox="0 0 118.5 115.7" style="enable-background:new 0 0 118.5 115.7;" xml:space="preserve">
<style type="text/css">
	.st0{clip-path:url(#XMLID_2_);fill:#DEE5E4;}
	.st1{clip-path:url(#XMLID_2_);fill:#C9CECE;}
	.st2{fill:#FFFFFF;}
	.st3{fill:#EF4C54;}
	.st4{fill:#E5344E;}
	.st5{filter:url(#Adobe_OpacityMaskFilter);}
	.st6{filter:url(#Adobe_OpacityMaskFilter_1_);}
	.st7{mask:url(#XMLID_3_);fill:url(#XMLID_4_);}
	.st8{fill:#6D1B2A;}
	.st9{fill:#16B1DE;}
	.st10{filter:url(#Adobe_OpacityMaskFilter_2_);}
	.st11{filter:url(#Adobe_OpacityMaskFilter_3_);}
	.st12{mask:url(#XMLID_5_);fill:url(#XMLID_6_);}
	.st13{fill:#118DB2;}
	.st14{fill:#DF3D88;}
	.st15{fill:#B2306B;}
	.st16{fill:#CCCBCB;}
	.st17{fill:#46C3DA;}
	.st18{fill:#27ACCE;}
	.st19{fill:#00A58C;}
	.st20{fill:#BB826E;}
	.st21{fill:#4D4E4E;}
	.st22{fill:#565759;}
	.st23{fill:#444446;}
	.st24{fill:#F9C31A;}
	.st25{fill:#E4AC23;}
	.st26{clip-path:url(#XMLID_7_);fill:#C5E7E9;}
	.st27{clip-path:url(#XMLID_7_);fill:#9CC1C3;}
	.st28{fill:#005C89;}
	.st29{fill:#89A3A3;}
	.st30{fill:#728D8D;}
	.st31{fill:#F4F6F6;}
	.st32{fill:#046F99;}
	.st33{fill:#F16355;}
	.st34{filter:url(#Adobe_OpacityMaskFilter_4_);}
	.st35{filter:url(#Adobe_OpacityMaskFilter_5_);}
	.st36{mask:url(#XMLID_8_);fill:url(#XMLID_9_);}
	.st37{fill:url(#XMLID_10_);}
</style>
<g id="XMLID_1070_">
	<circle id="XMLID_1075_" class="st24" cx="59.4" cy="57.1" r="56.8"/>
	<path id="XMLID_1074_" class="st25" d="M114.3,71.8c-2.5,9-6.7,16.2-11.6,22.1c-7.9,9.4-17.9,14.8-26.5,17.4
		c-10.1,3.1-18.3,2.5-18.3,2.5l-1.3-1.6c-0.8-0.9-1.2-1.3-1.4-1.7c-1.7-2.2-2.4-3.2-3.6-4.9c-1.1-1.6-1.2-1.8-5.6-7.4
		c-2.6-3.3-3.2-4.7-3.2-4.7c1.5-9.3,6.7-29.7,9.4-46.2c1.8-11.1,1.3-20.5,1.8-23.6c2.9,3.2,5.9,6.4,9.1,9.6c2.3,2.3,4.5,4.6,6.8,6.8
		c1.1-2.6,2.2-5.1,3.2-7.7l0,0c0.8-2.6,1.6-5.1,2.4-7.7c0.9,1,1.9,2,2.8,3c0.4,0.5,1,1.2,1.8,2.1c0.8,0.9,1.4,1.6,1.4,1.7
		C82.4,32.8,91,43.3,114.3,71.8z"/>
	<g id="XMLID_1071_">
		<path id="XMLID_1073_" class="st2" d="M81.4,38.9c-0.1-8.5-4.9-15.4-10.8-15.3c-5.9,0-10.6,7-10.5,15.5c0,6.5,2.8,12,6.8,14.2
			l0.3,39.1c0,1.6,1.3,2.9,2.9,2.9l2.2,0c1.6,0,2.9-1.3,2.9-2.9l-0.3-39.1C78.8,50.9,81.5,45.4,81.4,38.9z"/>
		<path id="XMLID_1072_" class="st2" d="M52.2,23.3h-1l0,25h-2.1c-0.2-0.1-0.4-0.2-0.6-0.2V23.3h-3.7v24.8c-0.2,0-0.4,0.1-0.5,0.2
			h-2.1v-25h-1c-1.4,0-2.6,1.3-2.6,2.8v23.6c0,1.6,1.2,2.8,2.6,2.8h1.5v40.1c0,1.6,1.3,2.9,2.9,2.9l2.2,0c1.6,0,2.9-1.3,2.9-2.9
			V52.6l1.5,0c1.4,0,2.6-1.3,2.6-2.8V26.1C54.8,24.6,53.7,23.3,52.2,23.3z"/>
	</g>
</g>
</svg>
