<?xml version="1.0" encoding="utf-8"?>
<!-- Generator: Adobe Illustrator 19.0.1, SVG Export Plug-In . SVG Version: 6.00 Build 0)  -->
<svg version="1.1" id="Layer_1" xmlns="http://www.w3.org/2000/svg" xmlns:xlink="http://www.w3.org/1999/xlink" x="0px" y="0px"
	 viewBox="0 0 118.5 115.7" style="enable-background:new 0 0 118.5 115.7;" xml:space="preserve">
<style type="text/css">
	.st0{clip-path:url(#XMLID_12_);fill:#DEE5E4;}
	.st1{clip-path:url(#XMLID_12_);fill:#C9CECE;}
	.st2{fill:#FFFFFF;}
	.st3{fill:#EF4C54;}
	.st4{fill:#E5344E;}
	.st5{filter:url(#Adobe_OpacityMaskFilter);}
	.st6{filter:url(#Adobe_OpacityMaskFilter_1_);}
	.st7{mask:url(#XMLID_13_);fill:url(#XMLID_14_);}
	.st8{fill:#6D1B2A;}
	.st9{fill:#16B1DE;}
	.st10{filter:url(#Adobe_OpacityMaskFilter_2_);}
	.st11{filter:url(#Adobe_OpacityMaskFilter_3_);}
	.st12{mask:url(#XMLID_15_);fill:url(#XMLID_16_);}
	.st13{fill:#118DB2;}
	.st14{fill:#DF3D88;}
	.st15{fill:#B2306B;}
	.st16{fill:#CCCBCB;}
	.st17{fill:#46C3DA;}
	.st18{fill:#27ACCE;}
	.st19{fill:#00A58C;}
	.st20{fill:#BB826E;}
	.st21{fill:#4D4E4E;}
	.st22{fill:#565759;}
	.st23{fill:#444446;}
	.st24{fill:#F9C31A;}
	.st25{fill:#E4AC23;}
	.st26{clip-path:url(#XMLID_17_);fill:#C5E7E9;}
	.st27{clip-path:url(#XMLID_17_);fill:#9CC1C3;}
	.st28{fill:#005C89;}
	.st29{fill:#89A3A3;}
	.st30{fill:#728D8D;}
	.st31{fill:#F4F6F6;}
	.st32{fill:#046F99;}
	.st33{fill:#F16355;}
	.st34{filter:url(#Adobe_OpacityMaskFilter_4_);}
	.st35{filter:url(#Adobe_OpacityMaskFilter_5_);}
	.st36{mask:url(#XMLID_18_);fill:url(#XMLID_19_);}
	.st37{fill:#C24F44;}
</style>
<g>
	<circle id="XMLID_1050_" class="st33" cx="60.7" cy="57.5" r="56"/>
	<defs>
		<filter id="Adobe_OpacityMaskFilter" filterUnits="userSpaceOnUse" x="31" y="34.8" width="85.2" height="78.5">
			<feFlood  style="flood-color:white;flood-opacity:1" result="back"/>
			<feBlend  in="SourceGraphic" in2="back" mode="normal"/>
		</filter>
	</defs>
	<mask maskUnits="userSpaceOnUse" x="31" y="34.8" width="85.2" height="78.5" id="XMLID_12_">
		<g id="XMLID_37_" class="st5">
			<defs>
				<filter id="Adobe_OpacityMaskFilter_1_" filterUnits="userSpaceOnUse" x="31" y="34.8" width="85.2" height="78.5">
					<feFlood  style="flood-color:white;flood-opacity:1" result="back"/>
					<feBlend  in="SourceGraphic" in2="back" mode="normal"/>
				</filter>
			</defs>
			<mask maskUnits="userSpaceOnUse" x="31" y="34.8" width="85.2" height="78.5" id="XMLID_12_">
			</mask>
			<linearGradient id="XMLID_13_" gradientUnits="userSpaceOnUse" x1="35.8441" y1="34.3984" x2="99.3952" y2="97.9495">
				<stop  offset="0.4" style="stop-color:#333333"/>
				<stop  offset="0.6057" style="stop-color:#2A2A2A"/>
				<stop  offset="0.9402" style="stop-color:#121212"/>
				<stop  offset="1" style="stop-color:#0D0D0D"/>
			</linearGradient>
			<path id="XMLID_38_" style="mask:url(#XMLID_12_);fill:url(#XMLID_13_);" d="M116.2,65L90.1,38.9c-0.1-0.1-0.2-0.2-0.4-0.3
				c-0.2-0.2-5.6-3.8-14.1-3.8c-8.7,0-12.5,3.9-12.7,4c-0.3,0.3-0.5,0.8-0.5,1.2v2.8l-4-4c-0.2-0.2-4-4-12.7-4
				c-8.5,0-13.8,3.7-14.1,3.8C31.2,38.9,31,39.4,31,40v38.5c0,0.5,0.2,1,0.6,1.3L65,113.3C91.4,111.3,112.7,91,116.2,65z"/>
		</g>
	</mask>
	<path id="XMLID_1049_" class="st37" d="M116.2,65L90.1,38.9c-0.1-0.1-0.2-0.2-0.4-0.3c-0.2-0.2-5.6-3.8-14.1-3.8
		c-8.7,0-12.5,3.9-12.7,4c-0.3,0.3-0.5,0.8-0.5,1.2v2.8l-4-4c-0.2-0.2-4-4-12.7-4c-8.5,0-13.8,3.7-14.1,3.8C31.2,38.9,31,39.4,31,40
		v38.5c0,0.5,0.2,1,0.6,1.3L65,113.3C91.4,111.3,112.7,91,116.2,65z"/>
	<g id="XMLID_1043_">
		<path id="XMLID_1045_" class="st2" d="M89.7,38.6c-0.2-0.2-5.6-3.8-14.1-3.8c-8.7,0-12.5,3.9-12.7,4c-0.3,0.3-0.5,0.8-0.5,1.2
			v38.5c0,0.7,0.4,1.3,1.1,1.6c0.7,0.3,1.4,0.1,1.9-0.4c0.1-0.1,3.1-3,10.2-3c7.3,0,12,3.1,12.1,3.2c0.3,0.2,0.6,0.3,1,0.3
			c0.3,0,0.6-0.1,0.8-0.2c0.6-0.3,0.9-0.9,0.9-1.5V40C90.4,39.4,90.2,38.9,89.7,38.6z"/>
		<path id="XMLID_1044_" class="st2" d="M45.8,34.8c-8.5,0-13.8,3.7-14.1,3.8C31.2,38.9,31,39.4,31,40v38.5c0,0.6,0.4,1.2,0.9,1.5
			c0.6,0.3,1.3,0.3,1.8-0.1c0,0,4.7-3.2,12.1-3.2c7,0,10,2.8,10.2,3c0.3,0.3,0.8,0.5,1.2,0.5c0.2,0,0.4,0,0.7-0.1
			c0.7-0.3,1.1-0.9,1.1-1.6V40c0-0.5-0.2-0.9-0.5-1.2C58.3,38.6,54.4,34.8,45.8,34.8z"/>
	</g>
</g>
</svg>
