<?xml version="1.0" encoding="utf-8"?>
<!-- Generator: Adobe Illustrator 19.0.1, SVG Export Plug-In . SVG Version: 6.00 Build 0)  -->
<svg version="1.1" id="Layer_1" xmlns="http://www.w3.org/2000/svg" xmlns:xlink="http://www.w3.org/1999/xlink" x="0px" y="0px"
	 viewBox="0 0 118.5 115.7" style="enable-background:new 0 0 118.5 115.7;" xml:space="preserve">
<style type="text/css">
	.st0{clip-path:url(#XMLID_2_);fill:#DEE5E4;}
	.st1{clip-path:url(#XMLID_2_);fill:#C9CECE;}
	.st2{fill:#FFFFFF;}
	.st3{fill:#EF4C54;}
	.st4{fill:#E5344E;}
	.st5{filter:url(#Adobe_OpacityMaskFilter);}
	.st6{filter:url(#Adobe_OpacityMaskFilter_1_);}
	.st7{mask:url(#XMLID_3_);fill:url(#XMLID_4_);}
	.st8{fill:#6D1B2A;}
	.st9{fill:#16B1DE;}
	.st10{filter:url(#Adobe_OpacityMaskFilter_2_);}
	.st11{filter:url(#Adobe_OpacityMaskFilter_3_);}
	.st12{mask:url(#XMLID_5_);fill:url(#XMLID_6_);}
	.st13{fill:#118DB2;}
	.st14{fill:#DF3D88;}
	.st15{fill:#B2306B;}
	.st16{fill:#CCCBCB;}
	.st17{fill:#46C3DA;}
	.st18{fill:#27ACCE;}
	.st19{fill:#00A58C;}
	.st20{fill:#BB826E;}
	.st21{fill:#4D4E4E;}
	.st22{fill:#565759;}
	.st23{fill:#444446;}
	.st24{fill:#F9C31A;}
	.st25{fill:#E4AC23;}
	.st26{clip-path:url(#XMLID_7_);fill:#C5E7E9;}
	.st27{clip-path:url(#XMLID_7_);fill:#9CC1C3;}
	.st28{fill:#005C89;}
	.st29{fill:#89A3A3;}
	.st30{fill:#728D8D;}
	.st31{fill:#F4F6F6;}
	.st32{fill:#046F99;}
	.st33{fill:#F16355;}
	.st34{filter:url(#Adobe_OpacityMaskFilter_4_);}
	.st35{filter:url(#Adobe_OpacityMaskFilter_5_);}
	.st36{mask:url(#XMLID_8_);fill:url(#XMLID_9_);}
	.st37{fill:url(#XMLID_10_);}
</style>
<g id="XMLID_1051_">
	<g id="XMLID_1066_">
		<defs>
			<circle id="XMLID_1067_" cx="59.4" cy="58.3" r="55.8"/>
		</defs>
		<clipPath id="XMLID_2_">
			<use xlink:href="#XMLID_1067_"  style="overflow:visible;"/>
		</clipPath>
		<circle id="XMLID_1069_" style="clip-path:url(#XMLID_2_);fill:#C5E7E9;" cx="59.4" cy="58.5" r="55.8"/>
		<polygon id="XMLID_1068_" style="clip-path:url(#XMLID_2_);fill:#9CC1C3;" points="134.5,80.2 98.2,128.7 53.5,95.2 52.8,70.7 
			37.9,57.3 32.4,37.2 42.7,30.4 66.2,30.2 		"/>
	</g>
	<g id="XMLID_1052_">
		<path id="XMLID_1065_" class="st28" d="M51,30.4c0,1.6-1.3,2.9-2.9,2.9h-2.3c-1.6,0-2.9-1.3-2.9-2.9l0,0c0-1.6,1.3-2.9,2.9-2.9H48
			C49.7,27.4,51,28.7,51,30.4L51,30.4z"/>
		<path id="XMLID_1064_" class="st2" d="M43,29.3c0,0-7.1,0.5-10.5,7.9c-0.8,1.7,1.2,6.5,1.2,6.5h3.7c0,0-3.1-4-1.3-7.2
			c1.8-3.2,7.5-4.2,7.5-4.2L43,29.3z"/>
		<path id="XMLID_1063_" class="st29" d="M33.6,43.7c0,0,3.1,0,3.7,0c0.6,0,0.5,1.4,0.5,1.4s-0.2,7.7,5,14.8C47.4,66,51,67,52.9,67
			v11L51,77.9v-7.1c0,0-5.9-1.3-11.6-10c-3.5-5.3-5-12.6-6-15.8C33.1,44.2,33.6,43.7,33.6,43.7z"/>
		<path id="XMLID_1062_" class="st28" d="M54.7,30.4c0,1.6,1.3,2.9,2.9,2.9H60c1.6,0,2.9-1.3,2.9-2.9l0,0c0-1.6-1.3-2.9-2.9-2.9
			h-2.3C56,27.4,54.7,28.7,54.7,30.4L54.7,30.4z"/>
		<path id="XMLID_1061_" class="st2" d="M62.7,29.3c0,0,7.1,0.5,10.5,7.9c0.8,1.7-1.2,6.5-1.2,6.5h-3.7c0,0,3.1-4,1.3-7.2
			c-1.8-3.2-7.5-4.2-7.5-4.2L62.7,29.3z"/>
		<path id="XMLID_1060_" class="st30" d="M72.1,43.7c0,0-3,0-3.7,0c-0.8,0-0.5,1.4-0.5,1.4s0.2,7.7-5,14.8c-4.5,6.1-8.2,7.1-10,7.1
			v11l1.9-0.1v-7.1c0,0,5.9-1.3,11.6-10c3.5-5.3,5-12.6,6-15.8C72.6,44.2,72.1,43.7,72.1,43.7z"/>
		<path id="XMLID_1059_" class="st2" d="M51.2,78.9h3.4v10.7c0,0-0.5,4.2,3.9,4.2c7.7,0.2,11,0.1,11,0.1s4.1,0.2,4.3-5.3
			c0.1-5.1,0-14.6,0-14.6s-0.1-11.2,13.2-12.2l-0.5,2.9c0,0-9.3,1.8-9.4,9.4c-0.1,7-0.2,15.7-0.2,15.7s1,7.3-7.7,7.2
			c-9.8-0.1-9.8-0.1-9.8-0.1s-8.1,0.9-8.1-6.4C51.2,85,51.2,78.9,51.2,78.9z"/>
		<circle id="XMLID_1058_" class="st28" cx="91.1" cy="67" r="7.1"/>
		<circle id="XMLID_1057_" class="st29" cx="91.2" cy="66.7" r="2.3"/>
		<path id="XMLID_1056_" class="st2" d="M51.2,78.9c-0.9,0-0.7-1-0.2-1c0.5,0,3.4,0,3.8,0c0.4,0,0.6,1-0.1,1
			C53.9,78.9,52.1,78.9,51.2,78.9z"/>
		<ellipse id="XMLID_1055_" class="st31" cx="48.2" cy="29" rx="1.4" ry="0.7"/>
		<ellipse id="XMLID_1054_" class="st31" cx="60.1" cy="29" rx="1.3" ry="0.7"/>
		<path id="XMLID_1053_" class="st32" d="M91.2,60.8v1.4c0,0,3.6-0.1,4.3,2.7l1.6-0.3C97.1,64.6,95.3,60.4,91.2,60.8z"/>
	</g>
</g>
</svg>
