<?xml version="1.0" encoding="utf-8"?>
<!-- Generator: Adobe Illustrator 19.0.1, SVG Export Plug-In . SVG Version: 6.00 Build 0)  -->
<svg version="1.1" id="Layer_1" xmlns="http://www.w3.org/2000/svg" xmlns:xlink="http://www.w3.org/1999/xlink" x="0px" y="0px"
	 viewBox="0 0 118.5 115.7" style="enable-background:new 0 0 118.5 115.7;" xml:space="preserve">
<style type="text/css">
	.st0{clip-path:url(#XMLID_12_);fill:#DEE5E4;}
	.st1{clip-path:url(#XMLID_12_);fill:#C9CECE;}
	.st2{fill:#FFFFFF;}
	.st3{fill:#EF4C54;}
	.st4{fill:#E5344E;}
	.st5{filter:url(#Adobe_OpacityMaskFilter);}
	.st6{filter:url(#Adobe_OpacityMaskFilter_1_);}
	.st7{mask:url(#XMLID_13_);fill:url(#XMLID_14_);}
	.st8{fill:#6D1B2A;}
	.st9{fill:#16B1DE;}
	.st10{filter:url(#Adobe_OpacityMaskFilter_2_);}
	.st11{filter:url(#Adobe_OpacityMaskFilter_3_);}
	.st12{mask:url(#XMLID_15_);fill:url(#XMLID_16_);}
	.st13{fill:#118DB2;}
	.st14{fill:#DF3D88;}
	.st15{fill:#B2306B;}
	.st16{fill:#CCCBCB;}
	.st17{fill:#46C3DA;}
	.st18{fill:#27ACCE;}
	.st19{fill:#00A58C;}
	.st20{fill:#BB826E;}
	.st21{fill:#4D4E4E;}
	.st22{fill:#565759;}
	.st23{fill:#444446;}
	.st24{fill:#F9C31A;}
	.st25{fill:#E4AC23;}
	.st26{clip-path:url(#XMLID_17_);fill:#C5E7E9;}
	.st27{clip-path:url(#XMLID_17_);fill:#9CC1C3;}
	.st28{fill:#005C89;}
	.st29{fill:#89A3A3;}
	.st30{fill:#728D8D;}
	.st31{fill:#F4F6F6;}
	.st32{fill:#046F99;}
	.st33{fill:#F16355;}
	.st34{filter:url(#Adobe_OpacityMaskFilter_4_);}
	.st35{filter:url(#Adobe_OpacityMaskFilter_5_);}
	.st36{mask:url(#XMLID_18_);fill:url(#XMLID_19_);}
	.st37{fill:url(#XMLID_20_);}
</style>
<g id="XMLID_1_">
	<g id="XMLID_7_">
		<defs>
			<path id="XMLID_8_" d="M114.7,55.7c1,32.2-25.2,58.4-57.4,57.4C28.2,112.2,4.4,88.4,3.5,59.3C2.5,27.2,28.8,0.9,60.9,1.9
				C90,2.8,113.7,26.6,114.7,55.7z"/>
		</defs>
		<use xlink:href="#XMLID_8_"  style="overflow:visible;fill:#DEE5E4;"/>
		<clipPath id="XMLID_12_">
			<use xlink:href="#XMLID_8_"  style="overflow:visible;"/>
		</clipPath>
		<circle id="XMLID_10_" class="st0" cx="59.8" cy="57.2" r="55.6"/>
		<polygon id="XMLID_9_" class="st1" points="120.7,72.3 88.3,115.5 34.5,75.2 47.4,58.7 46.6,36 66.4,38.1 71.7,45 86.3,46.5 		"/>
	</g>
	<g id="XMLID_2_">
		<g id="XMLID_3_">
			<path id="XMLID_6_" class="st2" d="M88.1,55.1C89.5,73.4,74.4,88.6,56,87.2C41.6,86,29.9,74.3,28.8,59.9
				c-1.4-18.3,13.8-33.5,32.1-32.1C75.3,29,87,40.7,88.1,55.1z"/>
			<polygon id="XMLID_5_" class="st3" points="58.4,38.7 50.9,38.7 50.9,51.9 39.3,51.9 39.3,64.3 50.9,64.3 50.9,76.3 58.4,76.3 
				58.4,38.7 			"/>
			<polygon id="XMLID_4_" class="st3" points="58.4,38.7 65.9,38.7 65.9,51.9 77.6,51.9 77.6,64.3 65.9,64.3 65.9,76.3 58.4,76.3 
				58.4,38.7 			"/>
		</g>
	</g>
</g>
</svg>
