<?xml version="1.0" encoding="utf-8"?>
<!-- Generator: Adobe Illustrator 19.0.1, SVG Export Plug-In . SVG Version: 6.00 Build 0)  -->
<svg version="1.1" id="Layer_1" xmlns="http://www.w3.org/2000/svg" xmlns:xlink="http://www.w3.org/1999/xlink" x="0px" y="0px"
	 viewBox="0 0 118.5 115.7" style="enable-background:new 0 0 118.5 115.7;" xml:space="preserve">
<style type="text/css">
	.st0{clip-path:url(#XMLID_12_);fill:#DEE5E4;}
	.st1{clip-path:url(#XMLID_12_);fill:#C9CECE;}
	.st2{fill:#FFFFFF;}
	.st3{fill:#EF4C54;}
	.st4{fill:#E5344E;}
	.st5{filter:url(#Adobe_OpacityMaskFilter);}
	.st6{filter:url(#Adobe_OpacityMaskFilter_1_);}
	.st7{mask:url(#XMLID_13_);fill:url(#XMLID_14_);}
	.st8{fill:#6D1B2A;}
	.st9{fill:#16B1DE;}
	.st10{filter:url(#Adobe_OpacityMaskFilter_2_);}
	.st11{filter:url(#Adobe_OpacityMaskFilter_3_);}
	.st12{mask:url(#XMLID_15_);fill:url(#XMLID_16_);}
	.st13{fill:#118DB2;}
	.st14{fill:#DF3D88;}
	.st15{fill:#B2306B;}
	.st16{fill:#CCCBCB;}
	.st17{fill:#00A58C;}
	.st18{fill:#BB826E;}
	.st19{fill:#4D4E4E;}
	.st20{fill:#565759;}
	.st21{fill:#444446;}
	.st22{fill:#F9C31A;}
	.st23{fill:#E4AC23;}
	.st24{clip-path:url(#XMLID_17_);fill:#C5E7E9;}
	.st25{clip-path:url(#XMLID_17_);fill:#9CC1C3;}
	.st26{fill:#005C89;}
	.st27{fill:#89A3A3;}
	.st28{fill:#728D8D;}
	.st29{fill:#F4F6F6;}
	.st30{fill:#046F99;}
	.st31{fill:#F16355;}
	.st32{filter:url(#Adobe_OpacityMaskFilter_4_);}
	.st33{filter:url(#Adobe_OpacityMaskFilter_5_);}
	.st34{mask:url(#XMLID_18_);fill:url(#XMLID_19_);}
	.st35{fill:url(#XMLID_20_);}
	.st36{fill:#46C3DA;}
	.st37{fill:#27ACCE;}
</style>
<g>
	<circle class="st36" cx="59.6" cy="57.5" r="56.2"/>
	<g>
		<path id="XMLID_1191_" class="st37" d="M91.1,40.1c-4.9-4.3-9.6-8.5-14.2-12.7c1.4,3,4.2,17.9-1.1,25.3c-1.3,1.9-3.9,3.5-6.7,3.5
			c-5,0-8-5.1-8.2-5.4c-0.7-1.4-1.4-2.8-2.2-4.1c-0.6,0.9-1.2,2.2-0.8,3.5c0.6,1.9,2.9,2.3,2.9,3.6c0,1.3-2,2.3-3,2.8
			c-2.1,1.2-4.5,3.8-6,9.8c0.4-0.2,0.7-0.3,0.8-0.4c7.1-2.7-1.8,2.7-1.1,2.4c6.9-3.7,2.8,0.6,2.5,1.4c-0.2,0.7,0.6,3.2,0.9,3.9
			c0.3,0.7-11.7,9.1-11.2,9.6c1.8,1.7,26.3,19.3,34.6,26.9c0.5-0.2,1-0.3,1.5-0.5c0,0,0.1,0,0.1,0c14.8-5.8,26.5-17.6,32.1-32.5
			c0.2-0.5,0.4-1,0.5-1.5c0.1-0.2,0.1-0.4,0.2-0.6c2-6.3,2.5-11.5,2.7-14.2C107.6,54.2,99.4,47.3,91.1,40.1z"/>
		<g>
			<path id="XMLID_1139_" class="st2" d="M60,20.6c-5.6,0-12.5,2-17.1,5.4c-5.6,4.2-7.7,14.8-6.3,21c1.4,6.2,3.1,9.2,5.4,12.2
				c2.2,3,3.7,4.2,4.5,7.5c0.9,4.2-2.3,12.9-2.2,16.7h24.8c1-4.2-0.5-10.8,1.3-13.7c1.1-1.2,4.3-0.2,8.3,0c2.3,0.1,2.9-0.1,3.7-0.6
				c0.5-0.3,1.1-1.1,1.2-1.5c0.3-0.7-0.2-1.9-0.4-2.4c-0.3-0.5-0.7-1,0.8-2c1.1-0.8,1-1.5,0.5-2.5c-0.3-0.6,0.4-0.8,0.9-1.2
				c0.6-0.4,0.2-1.5-0.2-2.2c-0.6-1.2,0.5-2,1-2.4c0.3-0.3,0.6-0.2,1.3-0.3c1.3-0.3,1.8-0.8,1.6-1.6c-0.2-0.8-2.4-3.3-2.9-4.1
				c-1.5-2.4-2-4.1-2-4.7c-0.1-1.2,0.5-2,0.9-3.4c0.3-1.4-3.2-10.2-7.1-13.9c-3.2-2.8-8.6-4.9-14.5-5.9C62.3,20.7,61.2,20.6,60,20.6
				L60,20.6z"/>
			<g>
				<g>
					<path id="XMLID_1138_" class="st36" d="M58.7,27.6l0.7,1.1c0.5,0,0.9,0,1.4,0.1l0.8-1.1l0.2,0.1l0.8,0.3l0.2,0.1l0,1.3
						c0.4,0.2,0.8,0.5,1.2,0.8l1.2-0.5l0.1,0.1l0.6,0.7l0.1,0.1l-0.6,1.2c0.3,0.4,0.5,0.8,0.6,1.3l1.3,0.2l0,0.2l0.2,0.9l0,0.2
						l-1.1,0.7c0,0.5,0,0.9-0.1,1.4l1.1,0.8l-0.1,0.2l-0.3,0.8l-0.1,0.2l-1.3,0c-0.2,0.4-0.5,0.8-0.8,1.2l0.5,1.2l-0.1,0.1l-0.7,0.6
						l-0.1,0.1l-1.2-0.6c-0.4,0.3-0.8,0.5-1.3,0.6L62,43.4l-0.2,0l-0.9,0.2l-0.2,0L60,42.5c-0.5,0-0.9,0-1.4-0.1l-0.8,1.1l-0.2-0.1
						l-0.8-0.3l-0.2-0.1l0-1.3c-0.4-0.2-0.8-0.5-1.2-0.8l-1.2,0.5L54,41.4l-0.6-0.7l-0.1-0.1l0.6-1.2c-0.3-0.4-0.5-0.8-0.6-1.3
						l-1.3-0.2l0-0.2l-0.2-0.9l0-0.2l1.1-0.7c0-0.5,0-0.9,0.1-1.4l-1.1-0.8l0.1-0.2l0.3-0.8l0.1-0.2l1.3,0c0.2-0.4,0.5-0.8,0.8-1.2
						L53.8,30l0.1-0.1l0.7-0.6l0.1-0.1l1.2,0.6c0.4-0.3,0.8-0.5,1.3-0.6l0.2-1.3l0.2,0l0.9-0.2L58.7,27.6L58.7,27.6z"/>
					<path id="XMLID_1131_" class="st36" d="M71.8,36.4l0.2,0l0.8,0l0.2,0l0.4,1.2c0.4,0.1,0.8,0.2,1.2,0.4l1-0.7l0.2,0.1l0.7,0.4
						l0.2,0.1l-0.3,1.2c0.3,0.3,0.6,0.6,0.9,1l1.2-0.1l0.1,0.2l0.4,0.7l0.1,0.2L78,41.9c0.1,0.4,0.2,0.8,0.3,1.3l1.1,0.5l0,0.2
						l0,0.8l0,0.2l-1.2,0.4c-0.1,0.4-0.2,0.8-0.4,1.2l0.7,1l-0.1,0.2L78,48.2l-0.1,0.2l-1.2-0.3c-0.3,0.3-0.6,0.6-1,0.9l0.2,1.2
						l-0.2,0.1L75,50.6l-0.2,0.1l-0.9-0.8c-0.4,0.1-0.8,0.2-1.3,0.3l-0.5,1.1l-0.2,0l-0.8,0l-0.2,0L70.6,50
						c-0.4-0.1-0.8-0.2-1.2-0.4l-1,0.7l-0.2-0.1l-0.7-0.4l-0.2-0.1l0.3-1.2c-0.3-0.3-0.6-0.6-0.9-1l-1.2,0.2l-0.1-0.2l-0.4-0.7
						l-0.1-0.2l0.8-0.9c-0.1-0.4-0.2-0.8-0.3-1.3L64.5,44l0-0.2l0-0.8l0-0.2l1.2-0.4c0.1-0.4,0.2-0.8,0.4-1.2l-0.7-1l0.1-0.2
						l0.4-0.7l0.1-0.2l1.2,0.3c0.3-0.3,0.6-0.6,1-0.9l-0.1-1.2l0.2-0.1l0.9-0.4l0.9,0.8c0.4-0.1,0.8-0.2,1.3-0.3L71.8,36.4
						L71.8,36.4z"/>
					<path id="XMLID_1111_" class="st36" d="M51.5,40.7l0.2,0l0.8,0l0.2,0l0.4,1.2c0.4,0.1,0.8,0.2,1.2,0.4l1-0.7l0.2,0.1l0.7,0.4
						l0.2,0.1l-0.3,1.2c0.3,0.3,0.6,0.6,0.9,1l1.2-0.2l0.1,0.2l0.4,0.7l0.1,0.2l-0.8,0.9c0.1,0.4,0.2,0.8,0.3,1.3l1.1,0.5l0,0.2
						l0,0.8l0,0.2l-1.2,0.4c-0.1,0.4-0.2,0.8-0.4,1.2l0.7,1l-0.1,0.2l-0.4,0.7l-0.1,0.2l-1.2-0.3c-0.3,0.3-0.6,0.6-1,0.9l0.2,1.2
						l-0.2,0.1L54.7,55L54.5,55l-0.9-0.8c-0.4,0.1-0.8,0.2-1.3,0.3l-0.5,1.1l-0.2,0l-0.8,0l-0.2,0l-0.4-1.2
						c-0.4-0.1-0.8-0.2-1.2-0.4l-1,0.7l-0.2-0.1l-0.7-0.4L47.1,54l0.3-1.2c-0.3-0.3-0.6-0.6-0.9-1L45.3,52l-0.1-0.2l-0.4-0.7
						L44.8,51l0.8-0.9c-0.1-0.4-0.2-0.8-0.3-1.3l-1.1-0.5l0-0.2l0-0.8l0-0.2l1.2-0.4c0.1-0.4,0.2-0.8,0.4-1.2l-0.7-1l0.1-0.2
						l0.4-0.7l0.1-0.2l1.2,0.3c0.3-0.3,0.6-0.6,1-0.9l-0.1-1.2l0.2-0.1l0.7-0.4l0.2-0.1l0.9,0.8c0.4-0.1,0.8-0.2,1.3-0.3L51.5,40.7
						L51.5,40.7z"/>
				</g>
				<path id="XMLID_1137_" class="st2" d="M59.6,30.7l0.5,2.4c0,0,0,0,0,0c0,0,0,0,0,0c0,0,0.1,0,0.1,0l1.3-2.1
					c-0.1,0-0.2-0.1-0.4-0.1C60.7,30.8,60.2,30.7,59.6,30.7L59.6,30.7z"/>
				<path id="XMLID_1136_" class="st2" d="M57.8,31.1c-0.6,0.3-1.2,0.7-1.7,1.2l2.1,1.3c0,0,0,0,0,0c0,0,0,0,0,0c0,0,0,0,0,0
					c0,0,0,0,0,0c0,0,0,0,0,0L57.8,31.1L57.8,31.1z"/>
				<path id="XMLID_1135_" class="st2" d="M63.1,32.1l-1.3,2.1c0,0,0,0,0,0c0,0,0,0,0,0c0,0,0,0,0,0c0,0,0,0,0,0c0,0,0,0,0,0
					l2.4-0.5C64,33.1,63.6,32.5,63.1,32.1L63.1,32.1z"/>
				<path id="XMLID_1134_" class="st2" d="M55.2,33.7c0,0.1-0.1,0.2-0.1,0.4c-0.2,0.5-0.3,1.1-0.2,1.6l2.4-0.5c0,0,0-0.1,0-0.1
					c0,0,0,0,0,0L55.2,33.7L55.2,33.7z"/>
				<path id="XMLID_1133_" class="st2" d="M59.7,34.2C59.7,34.2,59.7,34.2,59.7,34.2c-0.1,0-0.1,0-0.1,0c0,0,0,0,0,0c0,0,0,0,0,0
					c0,0,0,0-0.1,0h0c0,0,0,0-0.1,0c-0.1,0-0.1,0-0.2,0c0,0,0,0,0,0c0,0,0,0-0.1,0c0,0,0,0,0,0c0,0,0,0,0,0c0,0,0,0,0,0c0,0,0,0,0,0
					c0,0,0,0,0,0c0,0-0.1,0-0.1,0.1l0,0l0,0c0,0-0.1,0.1-0.1,0.1c0,0,0,0,0,0h0l0,0c-0.1,0.1-0.1,0.1-0.2,0.2c0,0.1-0.1,0.2-0.1,0.2
					c0,0,0,0,0,0c0,0,0,0,0,0c0,0,0,0,0,0.1c0,0,0,0,0,0c0,0,0,0,0,0c0,0,0,0,0,0.1c0,0,0,0,0,0.1c0,0,0,0,0,0c0,0,0,0,0,0
					c0,0,0,0,0,0c0,0,0,0,0,0c0,0,0,0,0,0c0,0,0,0,0,0.1c0,0,0,0,0,0s0,0,0,0c0,0,0,0,0,0c0,0,0,0.1,0,0.1c0,0,0,0,0,0
					c0,0,0,0,0,0.1v0c0,0,0,0,0,0.1c0,0,0,0.1,0,0.1c0,0,0,0,0,0c0,0,0,0,0,0v0c0,0,0,0,0,0.1c0,0,0,0,0,0.1c0,0,0,0,0,0
					c0,0,0,0,0,0c0,0,0,0,0,0c0,0,0,0,0,0c0,0,0,0,0,0c0,0,0,0,0,0c0,0,0,0,0,0c0,0,0,0,0,0c0,0,0,0,0,0c0,0,0,0,0,0c0,0,0,0,0,0
					c0,0,0,0,0,0c0,0,0,0,0,0c0,0,0,0,0,0c0,0,0,0,0,0c0,0,0,0,0,0c0,0,0,0,0,0c0,0,0,0,0,0c0,0,0,0,0,0c0,0,0,0,0,0h0c0,0,0,0,0,0
					c0,0,0,0,0,0c0,0,0,0,0.1,0c0,0,0,0,0,0c0,0,0,0,0,0c0,0,0,0,0,0c0,0,0,0,0,0c0,0,0,0,0.1,0h0c0,0,0,0,0,0c0,0,0,0,0,0
					c0,0,0,0,0.1,0c0,0,0,0,0,0c0,0,0,0,0,0c0,0,0,0,0,0c0,0,0,0,0.1,0c0,0,0,0,0.1,0l0,0c0,0,0,0,0.1,0c0,0,0,0,0.1,0h0
					c0,0,0,0,0,0c0,0,0,0,0.1,0c0,0,0,0,0.1,0h0c0,0,0,0,0,0c0,0,0,0,0.1,0c0,0,0,0,0,0c0,0,0,0,0.1,0h0c0,0,0,0,0.1,0
					c0,0,0,0,0.1,0c0,0,0,0,0,0c0,0,0,0,0,0c0,0,0,0,0,0c0,0,0,0,0.1,0l0,0c0,0,0,0,0.1,0c0,0,0,0,0.1,0l0,0c0,0,0,0,0.1,0
					c0,0,0,0,0.1,0c0,0,0,0,0,0c0,0,0,0,0,0c0,0,0,0,0.1,0c0,0,0,0,0,0c0,0,0,0,0,0c0,0,0,0,0,0c0,0,0,0,0,0c0,0,0,0,0,0
					c0,0,0,0,0,0c0,0,0,0,0,0c0,0,0.1-0.1,0.1-0.1c0,0,0.1-0.1,0.1-0.1c0,0,0-0.1,0.1-0.1c0,0,0,0,0,0c0,0,0,0,0,0v0c0,0,0,0,0-0.1
					c0,0,0,0,0,0c0,0,0,0,0,0c0,0,0,0,0,0c0,0,0,0,0,0c0,0,0,0,0-0.1c0,0,0,0,0,0c0,0,0,0,0,0l0,0c0,0,0,0,0,0c0,0,0,0,0,0
					c0,0,0,0,0,0v0c0,0,0,0,0-0.1c0,0,0,0,0-0.1c0,0,0-0.1,0-0.1c0-0.1,0-0.1,0-0.2v0c0,0,0,0,0-0.1v0c0,0,0,0,0,0c0,0,0,0,0,0
					c0,0,0,0,0-0.1c0,0,0,0,0,0c0,0,0,0,0,0c0,0,0,0,0,0c0,0,0,0,0,0c0,0,0,0,0,0c0,0,0,0,0,0c0,0,0,0,0-0.1c0,0,0,0,0,0
					c0,0,0,0,0,0c0,0,0,0,0,0c0,0,0,0,0,0c0,0,0,0,0,0c0,0,0,0,0,0c0,0,0,0,0,0c0,0,0,0,0,0c0,0,0,0,0,0c0,0,0,0,0,0
					c-0.1,0-0.1-0.1-0.2-0.1c0,0,0,0,0,0c0,0,0,0,0,0c0,0,0,0,0,0c0,0,0,0,0,0c0,0,0,0-0.1,0c0,0,0,0-0.1,0c0,0-0.1,0-0.1,0
					c0,0,0,0,0,0c0,0,0,0,0,0c0,0,0,0-0.1,0c0,0,0,0,0,0c0,0,0,0,0,0c0,0,0,0,0,0c0,0,0,0-0.1,0c0,0,0,0,0,0
					C59.8,34.2,59.8,34.2,59.7,34.2C59.8,34.2,59.7,34.2,59.7,34.2L59.7,34.2z"/>
				<path id="XMLID_1132_" class="st2" d="M64.7,35.5L62.3,36c0,0,0,0,0,0c0,0,0,0,0,0.1c0,0,0,0,0,0.1l2.1,1.3
					c0-0.1,0.1-0.2,0.1-0.4C64.6,36.6,64.7,36.1,64.7,35.5L64.7,35.5z"/>
				<path id="XMLID_1130_" class="st2" d="M57.6,37l-2.4,0.5c0.3,0.6,0.7,1.2,1.1,1.7l1.3-2.1C57.6,37.1,57.6,37.1,57.6,37
					C57.6,37.1,57.6,37.1,57.6,37C57.6,37,57.6,37,57.6,37C57.6,37,57.6,37,57.6,37C57.6,37,57.6,37,57.6,37L57.6,37z"/>
				<path id="XMLID_1129_" class="st2" d="M61.2,37.7C61.2,37.7,61.2,37.7,61.2,37.7C61.2,37.7,61.2,37.7,61.2,37.7
					c-0.1,0.1-0.1,0.1-0.1,0.1c0,0,0,0,0,0c0,0,0,0,0,0l0.5,2.4c0.6-0.3,1.2-0.7,1.7-1.1L61.2,37.7L61.2,37.7z"/>
				<path id="XMLID_1128_" class="st2" d="M59.2,38.1l-1.3,2.1c0.1,0,0.2,0.1,0.4,0.1c0.5,0.2,1.1,0.3,1.6,0.2l-0.5-2.4c0,0,0,0,0,0
					C59.3,38.1,59.3,38.1,59.2,38.1C59.2,38.1,59.2,38.1,59.2,38.1C59.2,38.1,59.2,38.1,59.2,38.1L59.2,38.1L59.2,38.1L59.2,38.1z"
					/>
				<path id="XMLID_1126_" class="st2" d="M72,39.3c-1.3,0-2.4,0.5-3.3,1.4l1.8,1.2c0.6-0.4,1.3-0.6,2-0.4l1.2-1.8
					c-0.4-0.2-0.9-0.3-1.4-0.3C72.2,39.3,72.1,39.3,72,39.3L72,39.3z"/>
				<path id="XMLID_1112_" class="st2" d="M75.1,40.6L74,42.4c0.4,0.6,0.6,1.3,0.4,2l1.8,1.2c0.2-0.4,0.3-0.9,0.3-1.4
					C76.6,42.7,76,41.5,75.1,40.6L75.1,40.6z"/>
				<path id="XMLID_1110_" class="st2" d="M67.8,42.1c0,0.1-0.1,0.2-0.1,0.3c-0.1,0.4-0.2,0.7-0.2,1.1c-0.1,1.4,0.5,2.6,1.4,3.5
					l1.2-1.8c-0.4-0.6-0.6-1.3-0.4-2L67.8,42.1z"/>
				<path id="XMLID_1109_" class="st2" d="M72,42.5c-0.4,0-0.8,0.2-1.1,0.6c-0.4,0.6-0.2,1.4,0.4,1.9c0.6,0.4,1.4,0.2,1.9-0.4
					c0.4-0.6,0.2-1.4-0.4-1.9C72.5,42.5,72.2,42.5,72,42.5z"/>
				<path id="XMLID_1108_" class="st2" d="M51.7,43.6c-1.3,0-2.4,0.5-3.3,1.4l1.8,1.2c0.6-0.4,1.3-0.6,2-0.4l1.2-1.8
					c-0.4-0.2-0.9-0.3-1.4-0.3C51.8,43.6,51.8,43.6,51.7,43.6L51.7,43.6z"/>
				<path id="XMLID_1107_" class="st2" d="M54.8,44.9l-1.2,1.8c0.4,0.6,0.6,1.3,0.4,2l1.8,1.2c0.2-0.4,0.3-0.9,0.3-1.4
					C56.3,47,55.7,45.8,54.8,44.9L54.8,44.9z"/>
				<path id="XMLID_1106_" class="st2" d="M73.5,45.8c-0.6,0.4-1.3,0.6-2,0.4L70.3,48c0.4,0.2,0.9,0.3,1.4,0.3
					c1.4,0.1,2.6-0.5,3.5-1.4L73.5,45.8L73.5,45.8z"/>
				<path id="XMLID_1105_" class="st2" d="M47.5,46.5c0,0.1-0.1,0.2-0.1,0.3c-0.1,0.4-0.2,0.7-0.2,1.1c-0.1,1.4,0.5,2.6,1.4,3.5
					l1.2-1.8c-0.4-0.6-0.6-1.3-0.4-2L47.5,46.5L47.5,46.5z"/>
				<path id="XMLID_1104_" class="st2" d="M51.6,46.8c-0.4,0-0.8,0.2-1.1,0.6c-0.4,0.6-0.2,1.4,0.4,1.9c0.6,0.4,1.4,0.2,1.9-0.4
					c0.4-0.6,0.2-1.4-0.4-1.9C52.2,46.9,51.9,46.8,51.6,46.8z"/>
				<path id="XMLID_1103_" class="st2" d="M53.1,50.2c-0.6,0.4-1.3,0.6-2,0.4L50,52.3c0.4,0.2,0.9,0.3,1.4,0.3
					c1.4,0.1,2.6-0.5,3.5-1.4L53.1,50.2L53.1,50.2z"/>
			</g>
		</g>
	</g>
</g>
</svg>
