<?xml version="1.0" encoding="utf-8"?>
<!-- Generator: Adobe Illustrator 19.0.1, SVG Export Plug-In . SVG Version: 6.00 Build 0)  -->
<svg version="1.1" id="Layer_1" xmlns="http://www.w3.org/2000/svg" xmlns:xlink="http://www.w3.org/1999/xlink" x="0px" y="0px"
	 viewBox="0 0 118.5 115.7" style="enable-background:new 0 0 118.5 115.7;" xml:space="preserve">
<style type="text/css">
	.st0{clip-path:url(#XMLID_2_);fill:#DEE5E4;}
	.st1{clip-path:url(#XMLID_2_);fill:#C9CECE;}
	.st2{fill:#FFFFFF;}
	.st3{fill:#EF4C54;}
	.st4{fill:#E5344E;}
	.st5{filter:url(#Adobe_OpacityMaskFilter);}
	.st6{filter:url(#Adobe_OpacityMaskFilter_1_);}
	.st7{mask:url(#XMLID_3_);fill:url(#XMLID_4_);}
	.st8{fill:#6D1B2A;}
	.st9{fill:#16B1DE;}
	.st10{filter:url(#Adobe_OpacityMaskFilter_2_);}
	.st11{filter:url(#Adobe_OpacityMaskFilter_3_);}
	.st12{mask:url(#XMLID_5_);fill:url(#XMLID_6_);}
	.st13{fill:#118DB2;}
	.st14{fill:#DF3D88;}
	.st15{fill:#B2306B;}
	.st16{fill:#CCCBCB;}
	.st17{fill:#46C3DA;}
	.st18{fill:#27ACCE;}
	.st19{fill:#00A58C;}
	.st20{fill:#BB826E;}
	.st21{fill:#4D4E4E;}
	.st22{fill:#565759;}
	.st23{fill:#444446;}
	.st24{fill:#F9C31A;}
	.st25{fill:#E4AC23;}
	.st26{clip-path:url(#XMLID_7_);fill:#C5E7E9;}
	.st27{clip-path:url(#XMLID_7_);fill:#9CC1C3;}
	.st28{fill:#005C89;}
	.st29{fill:#89A3A3;}
	.st30{fill:#728D8D;}
	.st31{fill:#F4F6F6;}
	.st32{fill:#046F99;}
	.st33{fill:#F16355;}
	.st34{filter:url(#Adobe_OpacityMaskFilter_4_);}
	.st35{filter:url(#Adobe_OpacityMaskFilter_5_);}
	.st36{mask:url(#XMLID_8_);fill:url(#XMLID_9_);}
	.st37{fill:url(#XMLID_10_);}
</style>
<g>
	<path id="XMLID_1090_" class="st22" d="M114.8,55.5c0,4.2-0.5,8.4-1.4,12.3c-4.4,19.2-18.7,34.7-37.3,40.6
		c-5.3,1.7-11,2.6-16.8,2.6C28.7,111,3.8,86.1,3.8,55.5C3.8,24.8,28.7,0,59.3,0C90,0,114.8,24.8,114.8,55.5z"/>
	<path id="XMLID_1089_" class="st23" d="M114.8,58.1c-5,47.8-48.4,52.4-48.4,52.4s-4.8-4-12.8-11c-1.9-1.6-3.5-3.1-5-4.5
		c-0.7-0.6-3.9-3.6-3.9-3.6s11.9-26.9,25.2-45c0.6,0.7,1.8,1.9,3.7,2.6c3.5,1.4,6.7,0.1,7.5-0.3c5.1-5.2,5.9-8.4,5.2-10.3
		C84.5,33.6,76.1,32,75.8,32l6.2-2.2c0,0,1.5,0.4,2.9,1.9C94.5,40.5,114.8,58.1,114.8,58.1z"/>
	<g id="XMLID_1076_">
		<g id="XMLID_1077_">
			<g id="XMLID_1078_">
				<g id="XMLID_1085_">
					<path id="XMLID_1086_" class="st2" d="M51,50.7l1.9,3.3l4.9-3.7c-3.2-5.7-7.5-13.2-7.5-13.2c-5.2-9-10.5-10.1-15.3-6.7
						c-4.8,3.3-5.9,9.1-1.8,16.1C38.6,55.8,47,51.9,51,50.7z M36.7,43.7c-2.2-3.8-1.9-7.4,0.7-9.2c2.6-1.8,5.8-0.7,8.5,4.1
						c3.1,5.4,1.7,7.8-0.4,8.5C43.6,48.1,39.9,49.2,36.7,43.7z"/>
				</g>
				<g id="XMLID_1083_">
					<path id="XMLID_1084_" class="st2" d="M66.3,58.1l-5.5,9.6l13.4,23.2c4-4.8,3.8-12.1-1.9-22C70.8,66.3,68.3,61.6,66.3,58.1z"/>
				</g>
				<path id="XMLID_1079_" class="st2" d="M84.1,30.8c-1.6-1.1-3.3-1.7-5-1.7c-3.4,0-6.9,2.5-10.4,8.5c0,0-4.4,7.8-7.7,13.5L54,56.3
					c-2,3.5-5.4,9.9-7.2,13.1c-5.7,9.9-5.9,17.2-1.9,22l23.2-40.2c1.9,0.6,5,1.8,8.2,1.8c3.3,0,6.9-1.3,9.6-6.1
					C89.9,39.9,88.9,34.1,84.1,30.8z M82.3,44.2c-1.9,3.3-4,4.3-5.8,4.3c-1.2,0-2.3-0.4-3.1-0.8c-2.1-0.7-3.5-3.2-0.4-8.5
					c1.9-3.3,4.1-4.9,6.1-4.9c0.9,0,1.7,0.3,2.5,0.8C84.2,36.8,84.5,40.4,82.3,44.2z M61.3,57.9c0,1.2-1,2.2-2.2,2.2
					c-1.2,0-2.2-1-2.2-2.2s1-2.2,2.2-2.2C60.4,55.8,61.3,56.7,61.3,57.9z"/>
			</g>
		</g>
	</g>
</g>
</svg>
